[Header]
FileType HTR
DataType HTRS
FileVersion 1
NumSegments 48
NumFrames 3
DataFrameRate 30
EulerRotationOrder ZYX
CalibrationUnits mm
RotationUnits Degrees
GlobalAxisofGravity Y
BoneLengthAxis Y
ScaleFactor 1.0
[SegmentNames&Hierarchy]
Wolf	GLOBAL
Becken	Wolf
Bauch	Becken
Bauch_001	Bauch
Brust	Bauch_001
Hals	Brust
Kopf_002	Hals
Kopf	Kopf_002
Unterkiefer	Kopf
Hals_fett	Unterkiefer
Maulunten	Unterkiefer
Mauloben	Kopf
MundW_L	Kopf
MundW_R	Kopf
Augen_con	Kopf
IK_Aug_R	Augen_con
IK_Aug_L	Augen_con
Aug_R	Kopf
aug_L	Kopf
Ohr_L	Kopf
Ohr_R	Kopf
Braun_O_L	Kopf
Braun_O_R	Kopf
aug_lied_O_L	Kopf
aug_lied_O_R	Kopf
aug_lied_U_L	Kopf
aug_lied_U_R	Kopf
Bauch_003	Brust
Schalterplatte_L	Bauch_003
Oberarm_L	Schalterplatte_L
Unterarm_L	Oberarm_L
Vorderpfote_L	Unterarm_L
Schalterplatte_R	Bauch_003
Oberarm_R	Schalterplatte_R
Unterarm_R	Oberarm_R
Vorderpfote_R	Unterarm_R
Schwanz	Becken
Schwanz_001	Schwanz
Schwanz_002	Schwanz_001
Schwanz_003	Schwanz_002
Oberschenkel_L	Becken
Unterschenkel_L	Oberschenkel_L
Pfote1_L	Unterschenkel_L
Pfote2_L	Pfote1_L
Oberschenkel_R	Becken
Unterschenkel_R	Oberschenkel_R
Pfote1_R	Unterschenkel_R
Pfote2_R	Pfote1_R
[BasePosition]
Wolf	0	0	0	0	0	0	1
Becken	0	0	0	0	0	0	1
Bauch	0	0	0	0	0	0	1
Bauch_001	0	0	0	0	0	0	1
Brust	0	0	0	0	0	0	1
Hals	0	0	0	0	0	0	1
Kopf_002	0	0	0	0	0	0	1
Kopf	0	0	0	0	0	0	1
Unterkiefer	0	0	0	0	0	0	1
Hals_fett	0	0	0	0	0	0	1
Maulunten	0	0	0	0	0	0	1
Mauloben	0	0	0	0	0	0	1
MundW_L	0	0	0	0	0	0	1
MundW_R	0	0	0	0	0	0	1
Augen_con	0	0	0	0	0	0	1
IK_Aug_R	0	0	0	0	0	0	1
IK_Aug_L	0	0	0	0	0	0	1
Aug_R	0	0	0	0	0	0	1
aug_L	0	0	0	0	0	0	1
Ohr_L	0	0	0	0	0	0	1
Ohr_R	0	0	0	0	0	0	1
Braun_O_L	0	0	0	0	0	0	1
Braun_O_R	0	0	0	0	0	0	1
aug_lied_O_L	0	0	0	0	0	0	1
aug_lied_O_R	0	0	0	0	0	0	1
aug_lied_U_L	0	0	0	0	0	0	1
aug_lied_U_R	0	0	0	0	0	0	1
Bauch_003	0	0	0	0	0	0	1
Schalterplatte_L	0	0	0	0	0	0	1
Oberarm_L	0	0	0	0	0	0	1
Unterarm_L	0	0	0	0	0	0	1
Vorderpfote_L	0	0	0	0	0	0	1
Schalterplatte_R	0	0	0	0	0	0	1
Oberarm_R	0	0	0	0	0	0	1
Unterarm_R	0	0	0	0	0	0	1
Vorderpfote_R	0	0	0	0	0	0	1
Schwanz	0	0	0	0	0	0	1
Schwanz_001	0	0	0	0	0	0	1
Schwanz_002	0	0	0	0	0	0	1
Schwanz_003	0	0	0	0	0	0	1
Oberschenkel_L	0	0	0	0	0	0	1
Unterschenkel_L	0	0	0	0	0	0	1
Pfote1_L	0	0	0	0	0	0	1
Pfote2_L	0	0	0	0	0	0	1
Oberschenkel_R	0	0	0	0	0	0	1
Unterschenkel_R	0	0	0	0	0	0	1
Pfote1_R	0	0	0	0	0	0	1
Pfote2_R	0	0	0	0	0	0	1
[Wolf]
37	0	0	0	-90	-0	0	1.0
38	0	0	0	-90	-0	0	1.0
39	0	0	0	-90	-0	0	1.0
[Becken]
37	0	0.5621799231	0.5430161357	0.2406687587	169.3776245	90.08653259	1.0
38	0	0.5621799231	0.5421780944	-0.03454438597	169.3774872	89.98757935	1.0
39	0	0.5621799231	0.5383861661	-0.3085932136	169.3777771	89.88905334	1.0
[Bauch]
37	0.9404072165	7.335228958e-08	-0.3559131622	-9.70548399e-07	12.60522652	-8.885302805e-08	1.0
38	0.9404072165	7.335228958e-08	-0.3559131622	-9.70548399e-07	12.60522652	-8.885302805e-08	1.0
39	0.9404072165	7.335228958e-08	-0.3559131622	-9.70548399e-07	12.60522652	-8.885302805e-08	1.0
[Bauch_001]
37	1.081897616	8.323696221e-08	1.180524034e-08	-2.503413032e-09	2.360082865	-2.670307531e-08	1.0
38	1.081897616	8.323696221e-08	1.180524034e-08	-2.503413032e-09	2.360082865	-2.670307531e-08	1.0
39	1.081897616	8.323696221e-08	1.180524034e-08	-2.503413032e-09	2.360082865	-2.670307531e-08	1.0
[Brust]
37	1.069831252	8.440110832e-08	3.139576066e-08	5.110827715e-06	15.73537064	-3.549572648e-05	1.0
38	1.069831252	8.440110832e-08	3.139576066e-08	5.110827715e-06	15.70134544	-3.549572648e-05	1.0
39	1.069831252	8.440110832e-08	3.139576066e-08	5.110827715e-06	15.5476284	-3.549572648e-05	1.0
[Hals]
37	1.258022308	9.662471712e-08	0.6079561114	-4.810633527e-06	46.87745667	-2.341890877e-06	1.0
38	1.258022308	9.662471712e-08	0.6079561114	-4.810633527e-06	46.87745667	-2.341890877e-06	1.0
39	1.258022308	9.662471712e-08	0.6079561114	-4.810633527e-06	46.87745667	-2.341890877e-06	1.0
[Kopf_002]
37	1.752595186	3.012712114e-05	0.265181601	0.006653386634	-165.1497192	0.002557684667	1.0
38	1.752595186	3.012712114e-05	0.265181601	0.006653386634	-165.1497192	0.002557684667	1.0
39	1.752595186	3.012712114e-05	0.265181601	0.006653386634	-165.1497192	0.002557684667	1.0
[Kopf]
37	1.015782118	6.868503988e-08	-5.515175872e-08	0.05733160302	113.2827759	-0.03612150252	1.0
38	1.015782118	6.868503988e-08	-5.515175872e-08	0.05743986741	113.3507614	-0.03602207452	1.0
39	1.015782118	6.868503988e-08	-5.515175872e-08	0.05791721493	113.6579666	-0.03558467329	1.0
[Unterkiefer]
37	0.6370447874	0.004552732222	0.4060618579	5.412721634	-68.3888092	-3.093543291	1.0
38	0.6370447874	0.004552732222	0.4060618579	5.412721634	-68.3888092	-3.093543291	1.0
39	0.6370447874	0.004552732222	0.4060618579	5.412721634	-68.3888092	-3.093543291	1.0
[Hals_fett]
37	0.2998305857	0.007747137919	0.1206372604	-5.071650982	-59.35961151	5.585564613	1.0
38	0.2998305857	0.007747137919	0.1206372604	-5.071650982	-59.35961151	5.585564613	1.0
39	0.2998305857	0.007747137919	0.1206372604	-5.071650982	-59.35961151	5.585564613	1.0
[Maulunten]
37	0.0831861794	-0.007747565862	-0.1206544712	-3.322209358	38.97271347	-0.8718761206	1.0
38	0.0831861794	-0.007747565862	-0.1206544712	-3.322209358	38.97271347	-0.8718761206	1.0
39	0.0831861794	-0.007747565862	-0.1206544712	-3.322209358	38.97271347	-0.8718761206	1.0
[Mauloben]
37	0.9101490974	0.0004056713078	0.4003697634	-0.1032672822	-28.7776947	0.03543138877	1.0
38	0.9101490974	0.0004056713078	0.4003697634	-0.1032672822	-28.7776947	0.03543138877	1.0
39	0.9101490974	0.0004056713078	0.4003697634	-0.1032672822	-28.7776947	0.03543138877	1.0
[MundW_L]
37	0.673060894	-0.3618555963	0.3751283586	-179.8370972	-17.94885063	24.713974	1.0
38	0.673060894	-0.3618555963	0.3751283586	-179.8370972	-17.94885063	24.713974	1.0
39	0.673060894	-0.3618555963	0.3751283586	-179.8370972	-17.94885063	24.713974	1.0
[MundW_R]
37	0.6732419133	0.3627035022	0.3739836514	179.665329	-18.02427101	-24.69083595	1.0
38	0.6732419133	0.3627035022	0.3739836514	179.665329	-18.02427101	-24.69083595	1.0
39	0.6732419133	0.3627035022	0.3739836514	179.665329	-18.02427101	-24.69083595	1.0
[Augen_con]
37	1.807373166	-0.0001604110003	0.183581531	0.0982221961	157.1545258	0.02385941334	1.0
38	1.807373166	-0.0001604110003	0.183581531	0.0982221961	157.1545258	0.02385941334	1.0
39	1.807373166	-0.0001604110003	0.183581531	0.0982221961	157.1545258	0.02385941334	1.0
[IK_Aug_R]
37	0.3461295962	0.2943200469	-1.071020961e-07	-0.4194760025	-4.963055134	165.6946411	1.0
38	0.3461295962	0.2943200469	-1.071020961e-07	-0.4194760025	-4.963055134	165.6946411	1.0
39	0.3461295962	0.2943200469	-1.071020961e-07	-0.4194760025	-4.963055134	165.6946411	1.0
[IK_Aug_L]
37	0.3461301029	-0.2943200171	-1.967418939e-07	0.4194771945	-4.963055134	-165.6946411	1.0
38	0.3461301029	-0.2943200171	-1.967418939e-07	0.4194771945	-4.963055134	-165.6946411	1.0
39	0.3461301029	-0.2943200171	-1.967418939e-07	0.4194771945	-4.963055134	-165.6946411	1.0
[Aug_R]
37	1.035154939	0.2207805216	-0.09605780989	176.004776	-17.29167175	12.85548782	1.0
38	1.035154939	0.2207805216	-0.09605780989	176.004776	-17.29167175	12.85548782	1.0
39	1.035154939	0.2207805216	-0.09605780989	176.004776	-17.29167175	12.85548782	1.0
[aug_L]
37	1.03504467	-0.2215988934	-0.09535907209	-176.1891022	-17.33180046	-12.83102131	1.0
38	1.03504467	-0.2215988934	-0.09535907209	-176.1891022	-17.33180046	-12.83102131	1.0
39	1.03504467	-0.2215988934	-0.09535907209	-176.1891022	-17.33180046	-12.83102131	1.0
[Ohr_L]
37	0.6407766938	-0.3659991026	-0.6893324852	-24.34923935	53.07765961	-15.02013397	1.0
38	0.6407766938	-0.3659991026	-0.6893324852	-24.34923935	53.07765961	-15.02013397	1.0
39	0.6407766938	-0.3659991026	-0.6893324852	-24.34923935	53.07765961	-15.02013397	1.0
[Ohr_R]
37	0.640958488	0.36349985	-0.690484941	24.05785561	53.12415695	14.75856686	1.0
38	0.640958488	0.36349985	-0.690484941	24.05785561	53.12415695	14.75856686	1.0
39	0.640958488	0.36349985	-0.690484941	24.05785561	53.12415695	14.75856686	1.0
[Braun_O_L]
37	0.9801894426	-0.3706049323	-0.3292509615	-143.317215	-34.69636154	52.39493942	1.0
38	0.9801894426	-0.3706049323	-0.3292509615	-143.317215	-34.69636154	52.39493942	1.0
39	0.9801894426	-0.3706049323	-0.3292509615	-143.317215	-34.69636154	52.39493942	1.0
[Braun_O_R]
37	0.9803640842	0.3690741956	-0.3304226995	143.1826782	-34.83971405	-52.34676361	1.0
38	0.9803640842	0.3690741956	-0.3304226995	143.1826782	-34.83971405	-52.34676361	1.0
39	0.9803640842	0.3690741956	-0.3304226995	143.1826782	-34.83971405	-52.34676361	1.0
[aug_lied_O_L]
37	1.038882375	-0.3271433413	-0.1608109176	-175.8613434	-20.15596771	60.31667709	1.0
38	1.038882375	-0.3271433413	-0.1608109176	-175.8613434	-20.15596771	60.31667709	1.0
39	1.038882375	-0.3271433413	-0.1608109176	-175.8613434	-20.15596771	60.31667709	1.0
[aug_lied_O_R]
37	1.039044976	0.326115787	-0.1618431658	175.7657928	-20.31324005	-60.31218338	1.0
38	1.039044976	0.326115787	-0.1618431658	175.7657928	-20.31324005	-60.31218338	1.0
39	1.039044976	0.326115787	-0.1618431658	175.7657928	-20.31324005	-60.31218338	1.0
[aug_lied_U_L]
37	1.02191329	-0.3312865198	-0.1338392347	-159.8099365	-28.7482872	60.17462158	1.0
38	1.02191329	-0.3312865198	-0.1338392347	-159.8099365	-28.7482872	60.17462158	1.0
39	1.02191329	-0.3312865198	-0.1338392347	-159.8099365	-28.7482872	60.17462158	1.0
[aug_lied_U_R]
37	1.022078872	0.3303525448	-0.1348842829	159.7071381	-28.90532303	-60.15359116	1.0
38	1.022078872	0.3303525448	-0.1348842829	159.7071381	-28.90532303	-60.15359116	1.0
39	1.022078872	0.3303525448	-0.1348842829	159.7071381	-28.90532303	-60.15359116	1.0
[Bauch_003]
37	1.276869178	9.429641068e-08	-0.6079563498	-3.842957085e-06	-137.6799469	1.008550771e-05	1.0
38	1.276869178	9.429641068e-08	-0.6079563498	-3.842957085e-06	-137.6799469	1.008550771e-05	1.0
39	1.276869178	9.429641068e-08	-0.6079563498	-3.842957085e-06	-137.6799469	1.008550771e-05	1.0
[Schalterplatte_L]
37	0.8931552172	-0.3829552233	0.002920690924	-81.66114044	76.88465118	-110.3329926	1.0
38	0.8957009315	-0.3826504946	-0.007251790259	-84.41428375	76.39936066	-113.2503357	1.0
39	0.9009516835	-0.3823457658	-0.01692096144	-86.42814636	75.99105835	-115.3551407	1.0
[Oberarm_L]
37	1.418636799	1.443549991e-07	9.778887033e-08	-107.6549149	-63.56918716	128.6396484	1.0
38	1.418636799	1.443549991e-07	9.778887033e-08	-104.8440781	-64.09884644	125.3919754	1.0
39	1.418636799	1.443549991e-07	9.778887033e-08	-100.5212097	-64.72812653	120.3927536	1.0
[Unterarm_L]
37	2.028227329	8.847563748e-08	-3.725290298e-07	14.2667408	62.90916824	17.71929359	1.0
38	2.028227329	8.847563748e-08	-3.725290298e-07	14.46578407	63.85356903	17.8616581	1.0
39	2.028227329	8.847563748e-08	-3.725290298e-07	14.38573837	64.76599121	17.63785934	1.0
[Vorderpfote_L]
37	1.705947638	1.746229827e-07	-5.704351125e-08	-27.9490242	-13.77504063	-4.22550106	1.0
38	1.705947638	1.746229827e-07	-5.704351125e-08	-29.34788895	-14.52690601	-3.198472261	1.0
39	1.705947638	1.746229827e-07	-5.704351125e-08	-30.66766739	-14.46423912	-2.20610857	1.0
[Schalterplatte_R]
37	0.8938577175	0.3830576241	-0.002586912364	4.956736565	67.69502258	32.0223732	1.0
38	0.8932088614	0.3830992579	0.008458213881	4.268188	67.05683899	31.22982979	1.0
39	0.89794451	0.3842155933	0.02080443129	3.82943511	66.62169647	30.71501732	1.0
[Oberarm_R]
37	1.418636322	-1.210719205e-07	-7.450580597e-08	49.43467331	-55.07075882	-58.16039658	1.0
38	1.418636322	-1.210719205e-07	-7.450580597e-08	50.2416687	-55.30658722	-59.24897003	1.0
39	1.418636322	-1.210719205e-07	-7.450580597e-08	51.20056915	-55.58980942	-60.52513123	1.0
[Unterarm_R]
37	2.028231859	1.676380634e-07	-3.608874977e-07	-0.5517654419	38.92242432	-0.4239514172	1.0
38	2.028231859	1.676380634e-07	-3.608874977e-07	-0.6738228798	38.71839142	-0.5736311674	1.0
39	2.028231859	1.676380634e-07	-3.608874977e-07	-0.8069475889	38.77346039	-0.7330204248	1.0
[Vorderpfote_R]
37	1.705937624	7.799826562e-08	1.461012289e-07	4.242067337	80.07378387	3.857731104	1.0
38	1.705937624	7.799826562e-08	1.461012289e-07	4.106825829	80.15764618	3.720812559	1.0
39	1.705937624	7.799826562e-08	1.461012289e-07	4.005261421	80.37753296	3.618463993	1.0
[Schwanz]
37	-0.08818969131	-1.382431947e-08	0.05867221951	-2.220226997e-05	-120.9783173	2.181978562e-05	1.0
38	-0.08876357973	-1.382431947e-08	0.05899759009	-2.220226997e-05	-120.9133987	2.181978562e-05	1.0
39	-0.0913708061	-1.382431947e-08	0.06073964387	-2.220226997e-05	-120.6200562	2.181978562e-05	1.0
[Schwanz_001]
37	0.9104328156	6.868503988e-08	7.788912626e-08	-2.408194405e-06	17.30123329	-5.75290926e-07	1.0
38	0.9104328156	6.868503988e-08	7.788912626e-08	-2.408194405e-06	17.21281815	-5.75290926e-07	1.0
39	0.9104328156	6.868503988e-08	7.788912626e-08	-2.408194405e-06	16.81321716	-5.75290926e-07	1.0
[Schwanz_002]
37	0.7855660319	5.704351125e-08	-1.185253495e-07	8.174235973e-07	-2.345378399	-1.362372615e-07	1.0
38	0.7855660319	5.704351125e-08	-1.185253495e-07	8.174235973e-07	-2.409399509	-1.362372615e-07	1.0
39	0.7855660319	5.704351125e-08	-1.185253495e-07	8.174235973e-07	-2.698683739	-1.362372615e-07	1.0
[Schwanz_003]
37	0.8350355029	6.286426668e-08	-2.072192729e-07	-2.187832479e-06	-5.288218021	1.867661581e-07	1.0
38	0.8350355029	6.286426668e-08	-2.072192729e-07	-2.187832479e-06	-5.25432539	1.867661581e-07	1.0
39	0.8350355029	6.286426668e-08	-2.072192729e-07	-2.187832479e-06	-5.101190567	1.867661581e-07	1.0
[Oberschenkel_L]
37	0.7383760214	-0.5836999416	0.07801958919	-147.2743073	-101.1112595	151.8485718	1.0
38	0.7357696295	-0.5836999416	0.07832526416	-139.7353516	-99.02677155	144.1980743	1.0
39	0.7259749174	-0.5836999416	0.08026188612	-131.0332489	-97.48906708	135.4059601	1.0
[Unterschenkel_L]
37	1.686439037	6.984918599e-08	-6.053597446e-08	-10.72065258	-29.48095131	19.19945526	1.0
38	1.686439037	6.984918599e-08	-6.053597446e-08	-10.11379051	-27.63064575	18.145298	1.0
39	1.686439037	6.984918599e-08	-6.053597446e-08	-9.772079468	-26.75859451	17.34882545	1.0
[Pfote1_L]
37	1.190900326	6.519258022e-08	1.396983862e-07	2.380613565	29.83148003	-5.682431221	1.0
38	1.190900326	6.519258022e-08	1.396983862e-07	2.434730768	28.59887123	-5.571667194	1.0
39	1.190900326	6.519258022e-08	1.396983862e-07	2.471446276	27.72453308	-5.494412899	1.0
[Pfote2_L]
37	0.9876257777	7.450580597e-08	-5.587935092e-08	-153.6341095	87.32080841	-159.5379181	1.0
38	0.9876257777	7.450580597e-08	-5.587935092e-08	-162.8008118	86.24625397	-168.5002594	1.0
39	0.9876257777	7.450580597e-08	-5.587935092e-08	-164.4571686	85.72203827	-169.9494629	1.0
[Oberschenkel_R]
37	0.5019678473	0.5837000012	-0.07915091515	-12.60432243	-50.43917847	6.630871296	1.0
38	0.5151115656	0.5837000012	-0.08106844127	-12.3803463	-49.1091156	6.338415623	1.0
39	0.5305850506	0.5837000012	-0.07841943204	-12.24061203	-48.2253952	6.152883053	1.0
[Unterschenkel_R]
37	1.68644917	1.164153218e-07	2.793967901e-08	59.00836945	-73.80903625	-68.07436371	1.0
38	1.68644917	1.164153218e-07	2.793967901e-08	58.43599701	-73.46246338	-67.85632324	1.0
39	1.68644917	1.164153218e-07	2.793967901e-08	56.21961212	-72.82536316	-65.9486618	1.0
[Pfote1_R]
37	1.190900087	1.856824383e-07	4.190951941e-08	-2.208470106	32.99059677	6.0119133	1.0
38	1.190900087	1.856824383e-07	4.190951941e-08	-2.239999294	33.71192932	5.954608917	1.0
39	1.190900087	1.856824383e-07	4.190951941e-08	-2.27248621	34.42975616	5.896636963	1.0
[Pfote2_R]
37	0.9876258373	6.984919754e-09	6.635672634e-08	69.04980469	83.92459106	75.08701324	1.0
38	0.9876258373	6.984919754e-09	6.635672634e-08	66.12232208	83.7543869	72.39189148	1.0
39	0.9876258373	6.984919754e-09	6.635672634e-08	62.08181763	83.58912659	68.57168579	1.0
[EndOfFile]
